HIERARCHY
ROOT Hips
{
	OFFSET	0.000000	0.000000	0.000000
	CHANNELS 6 Xposition Yposition Zposition Zrotation Xrotation Yrotation
	JOINT LeftUpLeg
	{
		OFFSET	9.284511	-0.414713	0.902896
		CHANNELS 3 Zrotation Xrotation Yrotation
		JOINT LeftLeg
		{
			OFFSET	-0.320137	-37.843714	-1.267389
			CHANNELS 3 Zrotation Xrotation Yrotation
			JOINT LeftFoot
			{
				OFFSET	0.000000	-34.515802	-0.960918
				CHANNELS 3 Zrotation Xrotation Yrotation
				JOINT LeftFootHeel
				{
					OFFSET	-1.027618	-9.850933	-2.700982
					CHANNELS 3 Zrotation Xrotation Yrotation
					End Site
					{
						OFFSET	0.284778	-0.000010	13.488772
					}
				}
			}
		}
	}
	JOINT RightUpLeg
	{
		OFFSET	-9.284511	-0.414713	0.902896
		CHANNELS 3 Zrotation Xrotation Yrotation
		JOINT RightLeg
		{
			OFFSET	0.320137	-37.843714	-1.267389
			CHANNELS 3 Zrotation Xrotation Yrotation
			JOINT RightFoot
			{
				OFFSET	0.000000	-34.515802	-0.960918
				CHANNELS 3 Zrotation Xrotation Yrotation
				JOINT RightFootHeel
				{
					OFFSET	1.027618	-9.850933	-2.700982
					CHANNELS 3 Zrotation Xrotation Yrotation
					End Site
					{
						OFFSET	-0.284778	-0.000010	13.488772
					}
				}
			}
		}
	}
	JOINT Spine
	{
		OFFSET	0.000000	12.836601	0.326022
		CHANNELS 3 Zrotation Xrotation Yrotation
		JOINT Spine1
		{
			OFFSET	0.000000	9.120759	-0.326022
			CHANNELS 3 Zrotation Xrotation Yrotation
			JOINT LeftShoulder
			{
				OFFSET	4.177995	24.944703	-0.000008
				CHANNELS 3 Zrotation Xrotation Yrotation
				JOINT LeftArm
				{
					OFFSET	10.878590	0.318082	0.310213
					CHANNELS 3 Zrotation Xrotation Yrotation
					JOINT LeftForeArm
					{
						OFFSET	3.185947	-26.979373	-2.007784
						CHANNELS 3 Zrotation Xrotation Yrotation
						JOINT LeftHand
						{
							OFFSET	3.207944	-21.608107	4.261180
							CHANNELS 3 Zrotation Xrotation Yrotation
							End Site
							{
								OFFSET	-0.001754	-9.852228	0.889399
							}
						}
					}
				}
			}
			JOINT RightShoulder
			{
				OFFSET	-4.177995	24.944703	-0.000008
				CHANNELS 3 Zrotation Xrotation Yrotation
				JOINT RightArm
				{
					OFFSET	-10.878590	0.318082	0.310213
					CHANNELS 3 Zrotation Xrotation Yrotation
					JOINT RightForeArm
					{
						OFFSET	-3.185947	-26.979373	-2.007784
						CHANNELS 3 Zrotation Xrotation Yrotation
						JOINT RightHand
						{
							OFFSET	-3.207944	-21.608107	4.261180
							CHANNELS 3 Zrotation Xrotation Yrotation
							End Site
							{
								OFFSET	0.001755	-9.852228	0.889399
							}
						}
					}
				}
			}
			JOINT Neck
			{
				OFFSET	0.000000	29.389071	-1.304087
				CHANNELS 3 Zrotation Xrotation Yrotation
				JOINT Head
				{
					OFFSET	0.000000	7.093915	0.841385
					CHANNELS 3 Zrotation Xrotation Yrotation
					End Site
					{
						OFFSET	0.000000	12.498780	-1.167409
					}
				}
			}
		}
	}
}
MOTION
Frames:    10
Frame Time: 0.016667
0.000000	85.223992	0.000000	-0.326670	0.169526	-0.662341	0.319008	-0.181890	0.607436	-0.260320	-0.178607	0.082322	0.270373	0.194263	-0.027331	0.	0.	0.	0.124372	-0.763438	0.179811	-0.029796	0.975645	0.298896	0.233930	-0.379814	0.185875	0.	0.	0.	-0.000001	-0.000002	-0.000000	0.374168	0.557242	0.278142	0.001463	-0.639471	-0.225678	-0.258342	0.560348	0.438944	0.457176	-0.209489	-0.911736	0.102303	0.023247	-0.530361	-0.323969	-0.571951	-0.098767	-0.488394	0.284964	0.489513	0.050302	-0.316460	-1.182151	1.072495	2.032006	1.365806	-0.047720	1.958032	-0.486632	0.236914	1.198339	-0.094029	
0.000000	85.223992	0.000000	-0.326670	0.169526	-0.662341	0.319008	-0.181890	0.607436	-0.260320	-0.178607	0.082322	0.270373	0.194263	-0.027331	0.	0.	0.	0.124372	-0.763438	0.179811	-0.029796	0.975645	0.298896	0.233930	-0.379814	0.185875	0.	0.	0.	-0.000001	-0.000002	-0.000000	0.374168	0.557242	0.278142	0.001463	-0.639471	-0.225678	-0.258342	0.560348	0.438944	0.451412	-0.211333	-0.897919	0.115225	0.021396	-0.527607	-0.323969	-0.571951	-0.098767	-0.488394	0.284964	0.489513	0.050302	-0.316460	-1.182151	1.052911	2.024218	1.379224	-0.058175	1.963478	-0.518096	0.244009	1.200117	-0.061047	
0.000000	85.223992	0.000000	-0.326670	0.169526	-0.662341	0.319008	-0.181890	0.607436	-0.260320	-0.178607	0.082322	0.270373	0.194263	-0.027331	0.	0.	0.	0.124372	-0.763438	0.179811	-0.029796	0.975645	0.298896	0.233930	-0.379814	0.185875	0.	0.	0.	-0.000001	-0.000002	-0.000000	0.374168	0.557242	0.278142	0.001463	-0.639471	-0.225678	-0.259040	0.558555	0.454164	0.450553	-0.210153	-0.909511	0.125093	0.018024	-0.525824	-0.323969	-0.571951	-0.098767	-0.488394	0.284964	0.489513	0.050302	-0.316460	-1.182151	1.037738	2.013645	1.381689	-0.066385	1.967762	-0.542821	0.256779	1.197333	-0.031743	
0.000000	85.223992	0.000000	-0.326670	0.169526	-0.662341	0.319008	-0.181890	0.607436	-0.260320	-0.178607	0.082322	0.270373	0.194263	-0.027331	0.	0.	0.	0.124372	-0.763438	0.179811	-0.029796	0.975645	0.298896	0.233930	-0.379814	0.185875	0.	0.	0.	-0.000001	-0.000002	-0.000000	0.374168	0.557242	0.278142	0.001463	-0.639471	-0.225678	-0.259546	0.557244	0.465247	0.451029	-0.208933	-0.920598	0.125821	0.017842	-0.529339	-0.323969	-0.571951	-0.098767	-0.488394	0.284964	0.489513	0.050302	-0.316460	-1.182151	1.021556	2.003011	1.391703	-0.073282	1.926933	-0.554408	0.280635	1.249061	-0.002459	
0.000000	85.223992	0.000000	-0.326670	0.169526	-0.662341	0.319008	-0.181890	0.607436	-0.260320	-0.178607	0.082322	0.270373	0.194263	-0.027331	0.	0.	0.	0.124372	-0.763438	0.179811	-0.029796	0.975645	0.298896	0.233930	-0.379814	0.185875	0.	0.	0.	-0.000001	-0.000002	-0.000000	0.374168	0.557242	0.278142	0.001463	-0.639471	-0.225678	-0.259546	0.557244	0.465247	0.451029	-0.208933	-0.920598	0.129411	0.016904	-0.546712	-0.323969	-0.571951	-0.098767	-0.488394	0.284964	0.489513	0.049410	-0.315655	-1.178714	1.013957	1.996736	1.396385	-0.078029	1.889881	-0.559190	0.280566	1.310627	0.010115	
0.000000	85.223992	0.000000	-0.326670	0.169526	-0.662341	0.319008	-0.181890	0.607436	-0.260320	-0.178607	0.082322	0.270373	0.194263	-0.027331	0.	0.	0.	0.124372	-0.763438	0.179811	-0.029796	0.975645	0.298896	0.233930	-0.379814	0.185875	0.	0.	0.	-0.000001	-0.000002	-0.000000	0.374168	0.557242	0.278142	0.001463	-0.639471	-0.225678	-0.259546	0.557244	0.465247	0.451029	-0.208933	-0.920598	0.133432	0.015863	-0.566160	-0.323969	-0.571951	-0.098767	-0.488394	0.284964	0.489513	0.045729	-0.312358	-1.164581	1.000601	1.982476	1.402112	-0.081855	1.861275	-0.562828	0.281797	1.344984	0.014650	
0.000000	85.223992	0.000000	-0.326670	0.169526	-0.662341	0.319008	-0.181890	0.607436	-0.260320	-0.178607	0.082322	0.270373	0.194263	-0.027331	0.	0.	0.	0.124372	-0.763438	0.179811	-0.029796	0.975645	0.298896	0.233930	-0.379814	0.185875	0.	0.	0.	-0.000001	-0.000002	-0.000000	0.374168	0.557242	0.278142	0.001463	-0.639471	-0.225678	-0.259546	0.557244	0.465247	0.451029	-0.208933	-0.920598	0.136726	0.015004	-0.582107	-0.323969	-0.571951	-0.098767	-0.488394	0.284964	0.489513	0.038749	-0.319964	-1.160994	0.992066	1.980865	1.418361	-0.085907	1.830924	-0.566700	0.289610	1.392736	0.029324	
0.000000	85.223992	0.000000	-0.326670	0.169526	-0.662341	0.319008	-0.181890	0.607436	-0.260320	-0.178607	0.082322	0.270373	0.194263	-0.027331	0.	0.	0.	0.124372	-0.763438	0.179811	-0.029796	0.975645	0.298896	0.233930	-0.379814	0.185875	0.	0.	0.	-0.000001	-0.000002	-0.000000	0.374168	0.557242	0.278142	0.001463	-0.639471	-0.225678	-0.259546	0.557244	0.465247	0.451029	-0.208933	-0.920598	0.137433	0.014821	-0.585526	-0.323969	-0.571951	-0.098767	-0.488394	0.284964	0.489513	0.034402	-0.325946	-1.160845	0.991694	1.985113	1.434975	-0.089995	1.800146	-0.570632	0.301935	1.437428	0.045709	
0.000000	85.223992	0.000000	-0.326670	0.169526	-0.662341	0.319008	-0.181890	0.607436	-0.260320	-0.178607	0.082322	0.270373	0.194263	-0.027331	0.	0.	0.	0.124372	-0.763438	0.179811	-0.029796	0.975645	0.298896	0.233930	-0.379814	0.185875	0.	0.	0.	-0.000001	-0.000002	-0.000000	0.374168	0.557242	0.278142	0.001463	-0.639471	-0.225678	-0.259546	0.557244	0.465247	0.451029	-0.208933	-0.920598	0.137433	0.014821	-0.585526	-0.323969	-0.571951	-0.098767	-0.488394	0.284964	0.489513	0.024929	-0.338985	-1.160529	0.999495	1.998573	1.448945	-0.093680	1.772404	-0.574184	0.311483	1.466854	0.054465	
0.000000	85.223992	0.000000	-0.326670	0.169526	-0.662341	0.319008	-0.181890	0.607436	-0.260320	-0.178607	0.082322	0.270373	0.194263	-0.027331	0.	0.	0.	0.124372	-0.763438	0.179811	-0.029796	0.975645	0.298896	0.233930	-0.379814	0.185875	0.	0.	0.	-0.000001	-0.000002	-0.000000	0.374168	0.557242	0.278142	0.002666	-0.642404	-0.224308	-0.261237	0.558974	0.474137	0.451489	-0.207813	-0.930836	0.137433	0.014821	-0.585526	-0.323969	-0.571951	-0.098767	-0.489287	0.281777	0.489626	0.016044	-0.349299	-1.160310	1.008715	2.012314	1.451686	-0.094465	1.766505	-0.574934	0.324081	1.475873	0.065228	
